<?xml version="1.0" encoding="UTF-8"?>
<svg id="_レイヤー_2" data-name="レイヤー 2" xmlns="http://www.w3.org/2000/svg" xmlns:xlink="http://www.w3.org/1999/xlink" viewBox="0 0 1405.41 400.09">
  <defs>
    <style>
      .cls-1 {
        fill: url(#_名称未設定グラデーション_54);
      }

      .cls-1, .cls-2, .cls-3, .cls-4, .cls-5, .cls-6, .cls-7, .cls-8, .cls-9 {
        stroke: #333;
        stroke-miterlimit: 10;
        stroke-width: .25px;
      }

      .cls-2 {
        fill: url(#_名称未設定グラデーション_54-2);
      }

      .cls-3 {
        fill: url(#_名称未設定グラデーション_47);
      }

      .cls-10 {
        fill: #f2f2f2;
        stroke-width: 0px;
      }

      .cls-4 {
        fill: url(#_名称未設定グラデーション_53);
      }

      .cls-5 {
        fill: url(#_名称未設定グラデーション_34);
      }

      .cls-11 {
        filter: url(#drop-shadow-1);
      }

      .cls-6 {
        fill: url(#_名称未設定グラデーション_47-2);
      }

      .cls-7 {
        fill: url(#_名称未設定グラデーション_11);
      }

      .cls-8 {
        fill: url(#_名称未設定グラデーション_29);
      }

      .cls-9 {
        fill: url(#_名称未設定グラデーション_33);
      }
    </style>
    <filter id="drop-shadow-1" filterUnits="userSpaceOnUse">
      <feOffset dx="2" dy="2"/>
      <feGaussianBlur result="blur" stdDeviation="4"/>
      <feFlood flood-color="#000" flood-opacity=".75"/>
      <feComposite in2="blur" operator="in"/>
      <feComposite in="SourceGraphic"/>
    </filter>
    <linearGradient id="_名称未設定グラデーション_54" data-name="名称未設定グラデーション 54" x1="208.11" y1="132.56" x2="208.11" y2="5.53" gradientUnits="userSpaceOnUse">
      <stop offset="0" stop-color="#c7c0b4"/>
      <stop offset=".96" stop-color="#ebe3d4"/>
    </linearGradient>
    <linearGradient id="_名称未設定グラデーション_29" data-name="名称未設定グラデーション 29" x1="49.69" y1="288.2" x2="148.32" y2="229.36" gradientUnits="userSpaceOnUse">
      <stop offset="0" stop-color="#2184cf"/>
      <stop offset=".96" stop-color="#59b6fa"/>
    </linearGradient>
    <linearGradient id="_名称未設定グラデーション_33" data-name="名称未設定グラデーション 33" x1="200.08" y1="120.77" x2="200.08" y2="280.76" gradientUnits="userSpaceOnUse">
      <stop offset="0" stop-color="#d5eaf5"/>
      <stop offset=".96" stop-color="#d3d7d9"/>
    </linearGradient>
    <linearGradient id="_名称未設定グラデーション_47" data-name="名称未設定グラデーション 47" x1="118.43" y1="-.24" x2="118.43" y2="96.3" gradientUnits="userSpaceOnUse">
      <stop offset="0" stop-color="#ff7b2e"/>
      <stop offset=".96" stop-color="#eb8c55"/>
    </linearGradient>
    <linearGradient id="_名称未設定グラデーション_53" data-name="名称未設定グラデーション 53" x1="269.92" y1="143.99" x2="369.83" y2="92.51" gradientUnits="userSpaceOnUse">
      <stop offset="0" stop-color="#f2c233"/>
      <stop offset=".96" stop-color="#debe61"/>
    </linearGradient>
    <linearGradient id="_名称未設定グラデーション_34" data-name="名称未設定グラデーション 34" x1="226.06" y1="340.18" x2="353.26" y2="340.18" gradientUnits="userSpaceOnUse">
      <stop offset="0" stop-color="#f2c84a"/>
      <stop offset=".96" stop-color="#debe61"/>
    </linearGradient>
    <linearGradient id="_名称未設定グラデーション_54-2" data-name="名称未設定グラデーション 54" x1=".22" y1="155.97" x2="144.22" y2="155.97" xlink:href="#_名称未設定グラデーション_54"/>
    <linearGradient id="_名称未設定グラデーション_11" data-name="名称未設定グラデーション 11" x1="195.96" y1="278.91" x2="195.96" y2="404.78" gradientUnits="userSpaceOnUse">
      <stop offset="0" stop-color="#ff4f4f"/>
      <stop offset=".96" stop-color="#b5262b"/>
    </linearGradient>
    <linearGradient id="_名称未設定グラデーション_47-2" data-name="名称未設定グラデーション 47" x1="256.22" y1="243.97" x2="400.22" y2="243.97" xlink:href="#_名称未設定グラデーション_47"/>
  </defs>
  <g id="_レイヤー_1-2" data-name="レイヤー 1">
    <g>
      <g class="cls-11">
        <polygon class="cls-1" points="264.22 128.24 264.22 18.37 152 18.37 264.22 128.24"/>
        <polygon class="cls-8" points="82.15 337.8 146.67 238.37 17.64 238.37 82.15 337.8"/>
        <polygon class="cls-9" points="246.03 120.77 154.12 120.77 108.16 200.37 154.12 279.97 246.03 279.97 291.99 200.37 246.03 120.77"/>
        <polygon class="cls-3" points="118.43 .23 55.79 96.77 181.07 96.77 118.43 .23"/>
        <polygon class="cls-4" points="336.5 44.17 272.79 142.37 400.22 142.37 336.5 44.17"/>
        <polygon class="cls-5" points="289.66 389.19 353.26 291.17 226.06 291.17 289.66 389.19"/>
        <polygon class="cls-2" points=".22 191.97 103.04 191.97 144.22 119.97 41.39 119.97 .22 191.97"/>
        <polygon class="cls-7" points="134.62 279.85 134.62 399.97 257.3 399.97 134.62 279.85"/>
        <polygon class="cls-6" points="256.22 279.97 359.04 279.97 400.22 207.97 297.39 207.97 256.22 279.97"/>
      </g>
      <g>
        <path class="cls-10" d="M515.61,68.47v1.8c0,6.7,1.4,9.4,5.7,10.8,3.9,1.3,11.3,1.9,23.3,1.9,26.1,0,30.8-2,30.8-13.1,0-5.6-1.7-8.1-6.2-9.4-4.4-1.2-4.8-1.2-34.6-1.4-12.1-.1-17.3-1-21.4-3.7-4-2.7-5.6-6.4-5.6-13,0-10,3.6-15.7,11.5-18,5.7-1.7,14.5-2.5,28.2-2.5,15.4,0,23.3,1.1,27.9,4,4.9,3,6.4,6.5,6.7,15.8h-7.8c-.1-5.3-1-7.7-3.2-9.4-3.1-2.4-10-3.4-23.5-3.4-26.3,0-31.4,2.1-31.4,12.8,0,4.6,1.3,7.2,4.1,8.5,3.5,1.6,6.5,1.8,25.4,1.9,21.2.1,25.8.5,30.6,2.8,5.4,2.6,7.6,7.1,7.6,15.4,0,9.2-3.1,14.7-9.7,17.2-4.9,1.8-12.5,2.5-27.9,2.5-16.2,0-23.8-.7-29.2-2.5-6-2.1-9.3-7.2-9.3-14.4v-4.6h8Z"/>
        <path class="cls-10" d="M623.52,29.27h-33.9v-6.7h75.7v6.7h-33.8v60h-8V29.27Z"/>
        <path class="cls-10" d="M752.02,22.57v45.3c0,7.4-.2,9.4-1,11.8-3.1,8.4-10,10.3-38.3,10.3-23.1,0-30.7-1.2-35.1-5.4-2.4-2.3-3.6-5-4-8.9-.2-1.6-.2-3.2-.2-7.8V22.57h8v43.9c0,6.2,0,6.8.4,8.4,1.6,7,5.8,8.1,30.9,8.1,21.2,0,26.6-.8,29.3-4.5,1.8-2.5,2-3.6,2-12V22.57h8Z"/>
        <path class="cls-10" d="M769.91,22.57h51.9c14.7,0,22.1,2.7,26.1,9.7,3,4.9,4.4,12.8,4.4,23.6s-1.4,18.8-4.4,23.7c-4,7-11.4,9.7-26.1,9.7h-51.9V22.57ZM822.42,82.57c9.4,0,15.5-2.2,18.2-6.5,2.3-3.8,3.4-10,3.4-19.8,0-10.3-1.2-17.3-3.6-21-2.7-4.1-8.4-6-18.6-6h-43.9v53.3h44.5Z"/>
        <path class="cls-10" d="M868.91,22.57h66.4v6.7h-58.4v22.3h56.3v6.3h-56.3v24.7h58.9v6.7h-66.9V22.57Z"/>
        <path class="cls-10" d="M950.81,22.57h12.9l63,61V22.57h8v66.7h-12.9l-63-61v61h-8V22.57Z"/>
        <path class="cls-10" d="M1077.31,29.27h-33.9v-6.7h75.71v6.7h-33.8v60h-8V29.27Z"/>
        <path class="cls-10" d="M534.12,169.27h-33.9v-6.7h75.7v6.7h-33.8v60h-8v-60Z"/>
        <path class="cls-10" d="M584.61,162.57h66.4v6.7h-58.4v22.3h56.3v6.3h-56.3v24.7h58.9v6.7h-66.9v-66.7Z"/>
        <path class="cls-10" d="M672.91,214.27l-8.8,15h-8.9l39.3-66.7h11.3l39.3,66.7h-8.8l-8.8-15h-54.6ZM700.21,168.17l-23.5,39.8h47l-23.5-39.8Z"/>
        <path class="cls-10" d="M752.41,162.57h12.9l40.2,57.4,40.3-57.4h12.5v66.7h-8v-60.1l-42,60.1h-5.9l-42-60.1v60.1h-8v-66.7Z"/>
        <path class="cls-10" d="M587.92,346.87v2.8c0,8-.8,11.5-3.4,14.5-2.5,3-5.8,4.4-11.9,5.1-3.8.3-15.2.7-24.2.7-24.1,0-30-1-34.9-6.1-4.3-4.4-5.3-9.7-5.3-27.9,0-20.8,1.4-26.1,8.2-30.4,5.1-3.2,10.6-3.7,38.1-3.7,16.7,0,22.5.8,26.6,3.8,4.5,3.1,5.9,7.3,6.2,17.9h-7.8v-1.7c0-11.8-2.8-13-30.8-13-32,0-32.2.1-32.2,27.1,0,15.2.7,20,3.5,22.9,3.2,3.3,8.3,4.1,27,4.1,30,0,33.1-1.1,33.1-12.3v-3.8h7.8Z"/>
        <path class="cls-10" d="M682.42,307.97c4.3,4.5,5.3,9.7,5.3,27.9s-1,23.5-5.3,28c-5.1,5.3-10.2,6.1-37.6,6.1s-32.5-.8-37.6-6.1c-4.3-4.5-5.3-9.7-5.3-27.9s1-23.6,5.3-28c5.1-5.3,10.2-6.1,38-6.1s32.1.9,37.2,6.1ZM613.72,312.97c-2.8,2.9-3.5,7.7-3.5,23s.7,20,3.5,22.9c3.4,3.6,7.6,4.1,31.1,4.1s27.7-.6,31.1-4.1c2.8-2.9,3.5-7.7,3.5-22.9s-.7-20.1-3.5-23c-3.1-3.4-8.7-4.1-30.7-4.1s-28.3.7-31.5,4.1Z"/>
        <path class="cls-10" d="M704.41,302.57h12.9l63,61v-61h8v66.7h-12.9l-63-61v61h-8v-66.7Z"/>
        <path class="cls-10" d="M807.01,302.57h63.8v6.7h-55.8v23h52.9v6.3h-52.9v30.7h-8v-66.7Z"/>
        <path class="cls-10" d="M883.81,302.57h66.4v6.7h-58.4v22.3h56.3v6.3h-56.3v24.7h58.9v6.7h-66.9v-66.7Z"/>
        <path class="cls-10" d="M965.71,302.57h55c10.1,0,14.8,1.3,18.3,5.1,2.7,3,4.1,8.1,4.1,15.3,0,10.8-2.5,14.6-10.7,16.5,6.8,1.3,9.4,4.8,9.4,12.5v17.3h-8v-12.7c.2-11.5-2.7-14.3-14.3-14.2h-45.8v26.9h-8v-66.7ZM1017.61,336.07c13.7,0,17.2-2.7,17.2-13.5s-3.6-13.3-17.7-13.3h-43.4v26.8h43.9Z"/>
        <path class="cls-10" d="M1060.31,302.57h66.4v6.7h-58.4v22.3h56.3v6.3h-56.3v24.7h58.9v6.7h-66.9v-66.7Z"/>
        <path class="cls-10" d="M1142.21,302.57h12.9l63,61v-61h8v66.7h-12.9l-63-61v61h-8v-66.7Z"/>
        <path class="cls-10" d="M1322.51,346.87v2.8c0,8-.8,11.5-3.4,14.5-2.5,3-5.8,4.4-11.9,5.1-3.8.3-15.2.7-24.2.7-24.1,0-30-1-34.9-6.1-4.3-4.4-5.3-9.7-5.3-27.9,0-20.8,1.4-26.1,8.2-30.4,5.1-3.2,10.6-3.7,38.1-3.7,16.7,0,22.5.8,26.6,3.8,4.5,3.1,5.9,7.3,6.2,17.9h-7.8v-1.7c0-11.8-2.8-13-30.8-13-32,0-32.2.1-32.2,27.1,0,15.2.7,20,3.5,22.9,3.2,3.3,8.3,4.1,27,4.1,30,0,33.1-1.1,33.1-12.3v-3.8h7.8Z"/>
        <path class="cls-10" d="M1338.51,302.57h66.4v6.7h-58.4v22.3h56.3v6.3h-56.3v24.7h58.9v6.7h-66.9v-66.7Z"/>
      </g>
    </g>
  </g>
</svg>