<?xml version="1.0" encoding="UTF-8"?>
<svg id="_レイヤー_2" data-name="レイヤー_2" xmlns="http://www.w3.org/2000/svg" xmlns:xlink="http://www.w3.org/1999/xlink" viewBox="0 0 538.31 680.02">
  <defs>
    <style>
      .cls-1 {
        fill: url(#_名称未設定グラデーション_54-2);
      }

      .cls-1, .cls-2, .cls-3, .cls-4, .cls-5, .cls-6, .cls-7, .cls-8, .cls-9 {
        stroke: #333;
        stroke-miterlimit: 10;
        stroke-width: .25px;
      }

      .cls-2 {
        fill: url(#_名称未設定グラデーション_53);
      }

      .cls-3 {
        fill: url(#_名称未設定グラデーション_34);
      }

      .cls-10 {
        fill: #f2f2f2;
      }

      .cls-11 {
        filter: url(#drop-shadow-1);
      }

      .cls-4 {
        fill: url(#_名称未設定グラデーション_47-2);
      }

      .cls-5 {
        fill: url(#_名称未設定グラデーション_29);
      }

      .cls-6 {
        fill: url(#_名称未設定グラデーション_33);
      }

      .cls-7 {
        fill: url(#_名称未設定グラデーション_11);
      }

      .cls-8 {
        fill: url(#_名称未設定グラデーション_47);
      }

      .cls-9 {
        fill: url(#_名称未設定グラデーション_54);
      }
    </style>
    <filter id="drop-shadow-1" filterUnits="userSpaceOnUse">
      <feOffset dx="2" dy="2"/>
      <feGaussianBlur result="blur" stdDeviation="4"/>
      <feFlood flood-color="#000" flood-opacity=".75"/>
      <feComposite in2="blur" operator="in"/>
      <feComposite in="SourceGraphic"/>
    </filter>
    <linearGradient id="_名称未設定グラデーション_54" data-name="名称未設定グラデーション 54" x1="276.07" y1="132.56" x2="276.07" y2="5.53" gradientUnits="userSpaceOnUse">
      <stop offset="0" stop-color="#c7c0b4"/>
      <stop offset=".96" stop-color="#ebe3d4"/>
    </linearGradient>
    <linearGradient id="_名称未設定グラデーション_29" data-name="名称未設定グラデーション 29" x1="117.66" y1="288.2" x2="216.28" y2="229.36" gradientUnits="userSpaceOnUse">
      <stop offset="0" stop-color="#2184cf"/>
      <stop offset=".96" stop-color="#59b6fa"/>
    </linearGradient>
    <linearGradient id="_名称未設定グラデーション_33" data-name="名称未設定グラデーション 33" x1="268.04" y1="120.77" x2="268.04" y2="280.76" gradientUnits="userSpaceOnUse">
      <stop offset="0" stop-color="#d5eaf5"/>
      <stop offset=".96" stop-color="#d3d7d9"/>
    </linearGradient>
    <linearGradient id="_名称未設定グラデーション_47" data-name="名称未設定グラデーション 47" x1="186.39" y1="-.24" x2="186.39" y2="96.3" gradientUnits="userSpaceOnUse">
      <stop offset="0" stop-color="#ff7b2e"/>
      <stop offset=".96" stop-color="#eb8c55"/>
    </linearGradient>
    <linearGradient id="_名称未設定グラデーション_53" data-name="名称未設定グラデーション 53" x1="337.89" y1="143.99" x2="437.79" y2="92.51" gradientUnits="userSpaceOnUse">
      <stop offset="0" stop-color="#f2c233"/>
      <stop offset=".96" stop-color="#debe61"/>
    </linearGradient>
    <linearGradient id="_名称未設定グラデーション_34" data-name="名称未設定グラデーション 34" x1="294.03" y1="340.18" x2="421.23" y2="340.18" gradientUnits="userSpaceOnUse">
      <stop offset="0" stop-color="#f2c84a"/>
      <stop offset=".96" stop-color="#debe61"/>
    </linearGradient>
    <linearGradient id="_名称未設定グラデーション_54-2" data-name="名称未設定グラデーション 54" x1="68.18" y1="155.97" x2="212.18" y2="155.97" xlink:href="#_名称未設定グラデーション_54"/>
    <linearGradient id="_名称未設定グラデーション_11" data-name="名称未設定グラデーション 11" x1="263.92" y1="278.91" x2="263.92" y2="404.78" gradientUnits="userSpaceOnUse">
      <stop offset="0" stop-color="#ff4f4f"/>
      <stop offset=".96" stop-color="#b5262b"/>
    </linearGradient>
    <linearGradient id="_名称未設定グラデーション_47-2" data-name="名称未設定グラデーション 47" x1="324.18" y1="243.97" x2="468.18" y2="243.97" xlink:href="#_名称未設定グラデーション_47"/>
  </defs>
  <g id="_レイヤー_1-2" data-name="レイヤー_1">
    <g>
      <g class="cls-11">
        <polygon class="cls-9" points="332.18 128.24 332.18 18.37 219.97 18.37 332.18 128.24"/>
        <polygon class="cls-5" points="150.12 337.8 214.63 238.37 85.6 238.37 150.12 337.8"/>
        <polygon class="cls-6" points="314 120.77 222.08 120.77 176.13 200.37 222.08 279.97 314 279.97 359.95 200.37 314 120.77"/>
        <polygon class="cls-8" points="186.39 .23 123.75 96.77 249.03 96.77 186.39 .23"/>
        <polygon class="cls-2" points="404.47 44.17 340.75 142.37 468.18 142.37 404.47 44.17"/>
        <polygon class="cls-3" points="357.63 389.19 421.23 291.17 294.03 291.17 357.63 389.19"/>
        <polygon class="cls-1" points="68.18 191.97 171 191.97 212.18 119.97 109.36 119.97 68.18 191.97"/>
        <polygon class="cls-7" points="202.58 279.85 202.58 399.97 325.26 399.97 202.58 279.85"/>
        <polygon class="cls-4" points="324.18 279.97 427 279.97 468.18 207.97 365.36 207.97 324.18 279.97"/>
      </g>
      <g>
        <path class="cls-10" d="M92.22,507.12v1.08c0,4.02.84,5.64,3.42,6.48,2.34.78,6.78,1.14,13.98,1.14,15.66,0,18.48-1.2,18.48-7.86,0-3.36-1.02-4.86-3.72-5.64-2.64-.72-2.88-.72-20.76-.84-7.26-.06-10.38-.6-12.84-2.22-2.4-1.62-3.36-3.84-3.36-7.8,0-6,2.16-9.42,6.9-10.8,3.42-1.02,8.7-1.5,16.92-1.5,9.24,0,13.98.66,16.74,2.4,2.94,1.8,3.84,3.9,4.02,9.48h-4.68c-.06-3.18-.6-4.62-1.92-5.64-1.86-1.44-6-2.04-14.1-2.04-15.78,0-18.84,1.26-18.84,7.68,0,2.76.78,4.32,2.46,5.1,2.1.96,3.9,1.08,15.24,1.14,12.72.06,15.48.3,18.36,1.68,3.24,1.56,4.56,4.26,4.56,9.24,0,5.52-1.86,8.82-5.82,10.32-2.94,1.08-7.5,1.5-16.74,1.5-9.72,0-14.28-.42-17.52-1.5-3.6-1.26-5.58-4.32-5.58-8.64v-2.76h4.8Z"/>
        <path class="cls-10" d="M156.96,483.61h-20.34v-4.02h45.42v4.02h-20.28v36h-4.8v-36Z"/>
        <path class="cls-10" d="M234.06,479.59v27.18c0,4.44-.12,5.64-.6,7.08-1.86,5.04-6,6.18-22.98,6.18-13.86,0-18.42-.72-21.06-3.24-1.44-1.38-2.16-3-2.4-5.34-.12-.96-.12-1.92-.12-4.68v-27.18h4.8v26.34c0,3.72,0,4.08.24,5.04.96,4.2,3.48,4.86,18.54,4.86,12.72,0,15.96-.48,17.58-2.7,1.08-1.5,1.2-2.16,1.2-7.2v-26.34h4.8Z"/>
        <path class="cls-10" d="M244.8,479.59h31.14c8.82,0,13.26,1.62,15.66,5.82,1.8,2.94,2.64,7.68,2.64,14.16s-.84,11.28-2.64,14.22c-2.4,4.2-6.84,5.82-15.66,5.82h-31.14v-40.02ZM276.3,515.58c5.64,0,9.3-1.32,10.92-3.9,1.38-2.28,2.04-6,2.04-11.88,0-6.18-.72-10.38-2.16-12.6-1.62-2.46-5.04-3.6-11.16-3.6h-26.34v31.98h26.7Z"/>
        <path class="cls-10" d="M304.2,479.59h39.84v4.02h-35.04v13.38h33.78v3.78h-33.78v14.82h35.34v4.02h-40.14v-40.02Z"/>
        <path class="cls-10" d="M353.34,479.59h7.74l37.8,36.6v-36.6h4.8v40.02h-7.74l-37.8-36.6v36.6h-4.8v-40.02Z"/>
        <path class="cls-10" d="M429.24,483.61h-20.34v-4.02h45.42v4.02h-20.28v36h-4.8v-36Z"/>
        <path class="cls-10" d="M178.56,563.61h-20.34v-4.02h45.42v4.02h-20.28v36h-4.8v-36Z"/>
        <path class="cls-10" d="M208.86,559.59h39.84v4.02h-35.04v13.38h33.78v3.78h-33.78v14.82h35.34v4.02h-40.14v-40.02Z"/>
        <path class="cls-10" d="M261.84,590.6l-5.28,9h-5.34l23.58-40.02h6.78l23.58,40.02h-5.28l-5.28-9h-32.76ZM278.22,562.95l-14.1,23.88h28.2l-14.1-23.88Z"/>
        <path class="cls-10" d="M309.54,559.59h7.74l24.12,34.44,24.18-34.44h7.5v40.02h-4.8v-36.06l-25.2,36.06h-3.54l-25.2-36.06v36.06h-4.8v-40.02Z"/>
        <path class="cls-10" d="M47.82,666.16v1.68c0,4.8-.48,6.9-2.04,8.7-1.5,1.8-3.48,2.64-7.14,3.06-2.28.18-9.12.42-14.52.42-14.46,0-18-.6-20.94-3.66-2.58-2.64-3.18-5.82-3.18-16.74,0-12.48.84-15.66,4.92-18.24,3.06-1.92,6.36-2.22,22.86-2.22,10.02,0,13.5.48,15.96,2.28,2.7,1.86,3.54,4.38,3.72,10.74h-4.68v-1.02c0-7.08-1.68-7.8-18.48-7.8-19.2,0-19.32.06-19.32,16.26,0,9.12.42,12,2.1,13.74,1.92,1.98,4.98,2.46,16.2,2.46,18,0,19.86-.66,19.86-7.38v-2.28h4.68Z"/>
        <path class="cls-10" d="M104.52,642.83c2.58,2.7,3.18,5.82,3.18,16.74s-.6,14.1-3.18,16.8c-3.06,3.18-6.12,3.66-22.56,3.66s-19.5-.48-22.56-3.66c-2.58-2.7-3.18-5.82-3.18-16.74s.6-14.16,3.18-16.8c3.06-3.18,6.12-3.66,22.8-3.66s19.26.54,22.32,3.66ZM63.3,645.83c-1.68,1.74-2.1,4.62-2.1,13.8s.42,12,2.1,13.74c2.04,2.16,4.56,2.46,18.66,2.46s16.62-.36,18.66-2.46c1.68-1.74,2.1-4.62,2.1-13.74s-.42-12.06-2.1-13.8c-1.86-2.04-5.22-2.46-18.42-2.46s-16.98.42-18.9,2.46Z"/>
        <path class="cls-10" d="M117.72,639.59h7.74l37.8,36.6v-36.6h4.8v40.02h-7.74l-37.8-36.6v36.6h-4.8v-40.02Z"/>
        <path class="cls-10" d="M179.28,639.59h38.28v4.02h-33.48v13.8h31.74v3.78h-31.74v18.42h-4.8v-40.02Z"/>
        <path class="cls-10" d="M225.36,639.59h39.84v4.02h-35.04v13.38h33.78v3.78h-33.78v14.82h35.34v4.02h-40.14v-40.02Z"/>
        <path class="cls-10" d="M274.5,639.59h33c6.06,0,8.88.78,10.98,3.06,1.62,1.8,2.46,4.86,2.46,9.18,0,6.48-1.5,8.76-6.42,9.9,4.08.78,5.64,2.88,5.64,7.5v10.38h-4.8v-7.62c.12-6.9-1.62-8.58-8.58-8.52h-27.48v16.14h-4.8v-40.02ZM305.64,659.69c8.22,0,10.32-1.62,10.32-8.1s-2.16-7.98-10.62-7.98h-26.04v16.08h26.34Z"/>
        <path class="cls-10" d="M331.26,639.59h39.84v4.02h-35.04v13.38h33.78v3.78h-33.78v14.82h35.34v4.02h-40.14v-40.02Z"/>
        <path class="cls-10" d="M380.4,639.59h7.74l37.8,36.6v-36.6h4.8v40.02h-7.74l-37.8-36.6v36.6h-4.8v-40.02Z"/>
        <path class="cls-10" d="M488.57,666.16v1.68c0,4.8-.48,6.9-2.04,8.7-1.5,1.8-3.48,2.64-7.14,3.06-2.28.18-9.12.42-14.52.42-14.46,0-18-.6-20.94-3.66-2.58-2.64-3.18-5.82-3.18-16.74,0-12.48.84-15.66,4.92-18.24,3.06-1.92,6.36-2.22,22.86-2.22,10.02,0,13.5.48,15.96,2.28,2.7,1.86,3.54,4.38,3.72,10.74h-4.68v-1.02c0-7.08-1.68-7.8-18.48-7.8-19.2,0-19.32.06-19.32,16.26,0,9.12.42,12,2.1,13.74,1.92,1.98,4.98,2.46,16.2,2.46,18,0,19.86-.66,19.86-7.38v-2.28h4.68Z"/>
        <path class="cls-10" d="M498.17,639.59h39.84v4.02h-35.04v13.38h33.78v3.78h-33.78v14.82h35.34v4.02h-40.14v-40.02Z"/>
      </g>
    </g>
  </g>
</svg>