<?xml version="1.0" encoding="UTF-8"?>
<svg id="_レイヤー_2" data-name="レイヤー 2" xmlns="http://www.w3.org/2000/svg" xmlns:xlink="http://www.w3.org/1999/xlink" viewBox="0 0 960 840">
  <defs>
    <style>
      .cls-1 {
        fill: url(#_名称未設定グラデーション_54);
      }

      .cls-1, .cls-2, .cls-3, .cls-4, .cls-5, .cls-6, .cls-7, .cls-8, .cls-9 {
        stroke: #333;
        stroke-miterlimit: 10;
        stroke-width: .25px;
      }

      .cls-2 {
        fill: url(#_名称未設定グラデーション_54-2);
      }

      .cls-3 {
        fill: url(#_名称未設定グラデーション_47);
      }

      .cls-10 {
        fill: #f2f2f2;
      }

      .cls-10, .cls-11 {
        stroke-width: 0px;
      }

      .cls-4 {
        fill: url(#_名称未設定グラデーション_53);
      }

      .cls-5 {
        fill: url(#_名称未設定グラデーション_34);
      }

      .cls-12 {
        filter: url(#drop-shadow-1);
      }

      .cls-6 {
        fill: url(#_名称未設定グラデーション_47-2);
      }

      .cls-7 {
        fill: url(#_名称未設定グラデーション_11);
      }

      .cls-11 {
        fill: url(#_名称未設定グラデーション_86);
      }

      .cls-8 {
        fill: url(#_名称未設定グラデーション_29);
      }

      .cls-9 {
        fill: url(#_名称未設定グラデーション_33);
      }
    </style>
    <radialGradient id="_名称未設定グラデーション_86" data-name="名称未設定グラデーション 86" cx="-863.2" cy="134.31" fx="-863.2" fy="134.31" r="459.68" gradientTransform="translate(1801.93 240.02) scale(1.53 1.34)" gradientUnits="userSpaceOnUse">
      <stop offset="0" stop-color="#254f4f"/>
      <stop offset=".69" stop-color="#293d3d"/>
      <stop offset="1" stop-color="#162121"/>
    </radialGradient>
    <filter id="drop-shadow-1" filterUnits="userSpaceOnUse">
      <feOffset dx="2" dy="2"/>
      <feGaussianBlur result="blur" stdDeviation="4"/>
      <feFlood flood-color="#000" flood-opacity=".75"/>
      <feComposite in2="blur" operator="in"/>
      <feComposite in="SourceGraphic"/>
    </filter>
    <linearGradient id="_名称未設定グラデーション_54" data-name="名称未設定グラデーション 54" x1="488.1" y1="198.97" x2="488.1" y2="68.17" gradientUnits="userSpaceOnUse">
      <stop offset="0" stop-color="#c7c0b4"/>
      <stop offset=".96" stop-color="#ebe3d4"/>
    </linearGradient>
    <linearGradient id="_名称未設定グラデーション_29" data-name="名称未設定グラデーション 29" x1="324.97" y1="359.24" x2="426.53" y2="298.65" gradientUnits="userSpaceOnUse">
      <stop offset="0" stop-color="#2184cf"/>
      <stop offset=".96" stop-color="#59b6fa"/>
    </linearGradient>
    <linearGradient id="_名称未設定グラデーション_33" data-name="名称未設定グラデーション 33" x1="479.83" y1="186.83" x2="479.83" y2="351.58" gradientUnits="userSpaceOnUse">
      <stop offset="0" stop-color="#d5eaf5"/>
      <stop offset=".96" stop-color="#d3d7d9"/>
    </linearGradient>
    <linearGradient id="_名称未設定グラデーション_47" data-name="名称未設定グラデーション 47" x1="395.75" y1="62.23" x2="395.75" y2="161.63" gradientUnits="userSpaceOnUse">
      <stop offset="0" stop-color="#ff7b2e"/>
      <stop offset=".96" stop-color="#eb8c55"/>
    </linearGradient>
    <linearGradient id="_名称未設定グラデーション_53" data-name="名称未設定グラデーション 53" x1="551.75" y1="210.74" x2="654.63" y2="157.74" gradientUnits="userSpaceOnUse">
      <stop offset="0" stop-color="#f2c233"/>
      <stop offset=".96" stop-color="#debe61"/>
    </linearGradient>
    <linearGradient id="_名称未設定グラデーション_34" data-name="名称未設定グラデーション 34" x1="506.59" y1="412.76" x2="637.57" y2="412.76" gradientUnits="userSpaceOnUse">
      <stop offset="0" stop-color="#f2c84a"/>
      <stop offset=".96" stop-color="#debe61"/>
    </linearGradient>
    <linearGradient id="_名称未設定グラデーション_54-2" data-name="名称未設定グラデーション 54" x1="274.03" y1="223.08" x2="422.31" y2="223.08" xlink:href="#_名称未設定グラデーション_54"/>
    <linearGradient id="_名称未設定グラデーション_11" data-name="名称未設定グラデーション 11" x1="475.59" y1="349.67" x2="475.59" y2="479.29" gradientUnits="userSpaceOnUse">
      <stop offset="0" stop-color="#ff4f4f"/>
      <stop offset=".96" stop-color="#b5262b"/>
    </linearGradient>
    <linearGradient id="_名称未設定グラデーション_47-2" data-name="名称未設定グラデーション 47" x1="537.64" y1="313.69" x2="685.92" y2="313.69" xlink:href="#_名称未設定グラデーション_47"/>
  </defs>
  <g id="_レイヤー_1-2" data-name="レイヤー 1">
    <g>
      <rect class="cls-11" width="960" height="840"/>
      <g>
        <g class="cls-12">
          <polygon class="cls-1" points="545.87 194.52 545.87 81.39 430.32 81.39 545.87 194.52"/>
          <polygon class="cls-8" points="358.4 410.31 424.83 307.93 291.97 307.93 358.4 410.31"/>
          <polygon class="cls-9" points="527.15 186.83 432.5 186.83 385.18 268.8 432.5 350.76 527.15 350.76 574.47 268.8 527.15 186.83"/>
          <polygon class="cls-3" points="395.75 62.71 331.25 162.12 460.26 162.12 395.75 62.71"/>
          <polygon class="cls-4" points="620.31 107.96 554.7 209.07 685.92 209.07 620.31 107.96"/>
          <polygon class="cls-5" points="572.08 463.23 637.57 362.3 506.59 362.3 572.08 463.23"/>
          <polygon class="cls-2" points="274.03 260.15 379.9 260.15 422.31 186.01 316.43 186.01 274.03 260.15"/>
          <polygon class="cls-7" points="412.42 350.64 412.42 474.33 538.75 474.33 412.42 350.64"/>
          <polygon class="cls-6" points="537.64 350.76 643.51 350.76 685.92 276.62 580.04 276.62 537.64 350.76"/>
        </g>
        <g>
          <path class="cls-10" d="M298.78,584.67v1.11c0,4.14.86,5.81,3.52,6.67,2.41.8,6.98,1.17,14.4,1.17,16.12,0,19.03-1.24,19.03-8.09,0-3.46-1.05-5-3.83-5.81-2.72-.74-2.97-.74-21.38-.86-7.48-.06-10.69-.62-13.22-2.29-2.47-1.67-3.46-3.95-3.46-8.03,0-6.18,2.22-9.7,7.1-11.12,3.52-1.05,8.96-1.54,17.42-1.54,9.51,0,14.4.68,17.24,2.47,3.03,1.85,3.95,4.02,4.14,9.76h-4.82c-.06-3.27-.62-4.76-1.98-5.81-1.92-1.48-6.18-2.1-14.52-2.1-16.25,0-19.4,1.3-19.4,7.91,0,2.84.8,4.45,2.53,5.25,2.16.99,4.02,1.11,15.69,1.17,13.1.06,15.94.31,18.91,1.73,3.34,1.61,4.7,4.39,4.7,9.51,0,5.68-1.92,9.08-5.99,10.63-3.03,1.11-7.72,1.54-17.24,1.54-10.01,0-14.7-.43-18.04-1.54-3.71-1.3-5.75-4.45-5.75-8.9v-2.84h4.94Z"/>
          <path class="cls-10" d="M365.44,560.45h-20.94v-4.14h46.77v4.14h-20.88v37.07h-4.94v-37.07Z"/>
          <path class="cls-10" d="M444.83,556.31v27.99c0,4.57-.12,5.81-.62,7.29-1.92,5.19-6.18,6.36-23.66,6.36-14.27,0-18.97-.74-21.68-3.34-1.48-1.42-2.22-3.09-2.47-5.5-.12-.99-.12-1.98-.12-4.82v-27.99h4.94v27.12c0,3.83,0,4.2.25,5.19.99,4.33,3.58,5,19.09,5,13.1,0,16.43-.49,18.1-2.78,1.11-1.54,1.24-2.22,1.24-7.41v-27.12h4.94Z"/>
          <path class="cls-10" d="M455.89,556.31h32.06c9.08,0,13.65,1.67,16.12,5.99,1.85,3.03,2.72,7.91,2.72,14.58s-.86,11.61-2.72,14.64c-2.47,4.32-7.04,5.99-16.12,5.99h-32.06v-41.21ZM488.33,593.38c5.81,0,9.58-1.36,11.24-4.02,1.42-2.35,2.1-6.18,2.1-12.23,0-6.36-.74-10.69-2.22-12.97-1.67-2.53-5.19-3.71-11.49-3.71h-27.12v32.93h27.49Z"/>
          <path class="cls-10" d="M517.06,556.31h41.02v4.14h-36.08v13.78h34.78v3.89h-34.78v15.26h36.39v4.14h-41.33v-41.21Z"/>
          <path class="cls-10" d="M567.66,556.31h7.97l38.92,37.69v-37.69h4.94v41.21h-7.97l-38.92-37.69v37.69h-4.94v-41.21Z"/>
          <path class="cls-10" d="M645.81,560.45h-20.94v-4.14h46.77v4.14h-20.88v37.07h-4.94v-37.07Z"/>
          <path class="cls-10" d="M387.69,642.83h-20.94v-4.14h46.77v4.14h-20.88v37.07h-4.94v-37.07Z"/>
          <path class="cls-10" d="M418.89,638.69h41.02v4.14h-36.08v13.78h34.78v3.89h-34.78v15.26h36.39v4.14h-41.33v-41.21Z"/>
          <path class="cls-10" d="M473.44,670.63l-5.44,9.27h-5.5l24.28-41.21h6.98l24.28,41.21h-5.44l-5.44-9.27h-33.73ZM490.31,642.15l-14.52,24.59h29.04l-14.52-24.59Z"/>
          <path class="cls-10" d="M522.56,638.69h7.97l24.84,35.46,24.9-35.46h7.72v41.21h-4.94v-37.13l-25.95,37.13h-3.65l-25.95-37.13v37.13h-4.94v-41.21Z"/>
          <path class="cls-10" d="M253.06,748.44v1.73c0,4.94-.49,7.11-2.1,8.96-1.54,1.85-3.58,2.72-7.35,3.15-2.35.19-9.39.43-14.95.43-14.89,0-18.54-.62-21.56-3.77-2.66-2.72-3.27-5.99-3.27-17.24,0-12.85.86-16.12,5.07-18.78,3.15-1.98,6.55-2.29,23.54-2.29,10.32,0,13.9.49,16.43,2.35,2.78,1.91,3.64,4.51,3.83,11.06h-4.82v-1.05c0-7.29-1.73-8.03-19.03-8.03-19.77,0-19.89.06-19.89,16.74,0,9.39.43,12.36,2.16,14.15,1.98,2.04,5.13,2.53,16.68,2.53,18.54,0,20.45-.68,20.45-7.6v-2.35h4.82Z"/>
          <path class="cls-10" d="M311.44,724.41c2.66,2.78,3.27,5.99,3.27,17.24s-.62,14.52-3.27,17.3c-3.15,3.28-6.3,3.77-23.23,3.77s-20.08-.49-23.23-3.77c-2.66-2.78-3.27-5.99-3.27-17.24s.62-14.58,3.27-17.3c3.15-3.27,6.3-3.77,23.48-3.77s19.83.56,22.98,3.77ZM269,727.5c-1.73,1.79-2.16,4.76-2.16,14.21s.43,12.36,2.16,14.15c2.1,2.22,4.7,2.53,19.21,2.53s17.11-.37,19.21-2.53c1.73-1.79,2.16-4.76,2.16-14.15s-.43-12.42-2.16-14.21c-1.91-2.1-5.37-2.53-18.97-2.53s-17.48.43-19.46,2.53Z"/>
          <path class="cls-10" d="M325.04,721.07h7.97l38.92,37.69v-37.69h4.94v41.21h-7.97l-38.92-37.69v37.69h-4.94v-41.21Z"/>
          <path class="cls-10" d="M388.43,721.07h39.42v4.14h-34.47v14.21h32.68v3.89h-32.68v18.97h-4.94v-41.21Z"/>
          <path class="cls-10" d="M435.88,721.07h41.02v4.14h-36.08v13.78h34.78v3.89h-34.78v15.26h36.39v4.14h-41.33v-41.21Z"/>
          <path class="cls-10" d="M486.48,721.07h33.98c6.24,0,9.14.8,11.31,3.15,1.67,1.85,2.53,5,2.53,9.45,0,6.67-1.54,9.02-6.61,10.19,4.2.8,5.81,2.97,5.81,7.72v10.69h-4.94v-7.85c.12-7.1-1.67-8.83-8.83-8.77h-28.3v16.62h-4.94v-41.21ZM518.54,741.77c8.46,0,10.63-1.67,10.63-8.34s-2.22-8.22-10.94-8.22h-26.81v16.56h27.12Z"/>
          <path class="cls-10" d="M544.92,721.07h41.02v4.14h-36.08v13.78h34.78v3.89h-34.78v15.26h36.39v4.14h-41.33v-41.21Z"/>
          <path class="cls-10" d="M595.52,721.07h7.97l38.92,37.69v-37.69h4.94v41.21h-7.97l-38.92-37.69v37.69h-4.94v-41.21Z"/>
          <path class="cls-10" d="M706.91,748.44v1.73c0,4.94-.49,7.11-2.1,8.96-1.54,1.85-3.58,2.72-7.35,3.15-2.35.19-9.39.43-14.95.43-14.89,0-18.54-.62-21.56-3.77-2.66-2.72-3.27-5.99-3.27-17.24,0-12.85.86-16.12,5.07-18.78,3.15-1.98,6.55-2.29,23.54-2.29,10.32,0,13.9.49,16.43,2.35,2.78,1.91,3.64,4.51,3.83,11.06h-4.82v-1.05c0-7.29-1.73-8.03-19.03-8.03-19.77,0-19.89.06-19.89,16.74,0,9.39.43,12.36,2.16,14.15,1.98,2.04,5.13,2.53,16.68,2.53,18.54,0,20.45-.68,20.45-7.6v-2.35h4.82Z"/>
          <path class="cls-10" d="M716.8,721.07h41.02v4.14h-36.08v13.78h34.78v3.89h-34.78v15.26h36.39v4.14h-41.33v-41.21Z"/>
        </g>
      </g>
    </g>
  </g>
</svg>